<?xml version="1.0" standalone="no"?>
<!DOCTYPE svg PUBLIC "-//W3C//DTD SVG 20010904//EN"
 "http://www.w3.org/TR/2001/REC-SVG-20010904/DTD/svg10.dtd">
<svg version="1.0" xmlns="http://www.w3.org/2000/svg"
 width="80.000000pt" height="80.000000pt" viewBox="0 0 80.000000 80.000000"
 preserveAspectRatio="xMidYMid meet">
<metadata>
Created by potrace 1.11, written by Peter Selinger 2001-2013
</metadata>
<g transform="translate(0.000000,80.000000) scale(0.100000,-0.100000)"
fill="#000000" stroke="none">
<path d="M411 751 c-21 -22 -30 -26 -43 -17 -9 5 -21 7 -25 3 -7 -7 8 -21 32
-30 18 -7 1 -15 -45 -22 -60 -9 -141 -46 -174 -81 -35 -36 -66 -103 -70 -150
-2 -25 -13 -44 -35 -64 -21 -20 -31 -38 -31 -58 0 -34 40 -82 69 -82 12 0 28
-16 45 -44 57 -98 175 -176 265 -176 90 0 210 79 267 176 15 26 33 44 44 44
30 0 60 33 67 72 5 33 2 41 -24 66 -21 19 -34 44 -42 80 -6 29 -17 65 -25 80
-36 70 -127 126 -223 138 -30 3 -53 11 -53 18 0 19 30 56 46 56 8 0 14 5 14
10 0 20 -32 9 -59 -19z"/>
</g>
</svg>
